# xmcd
#
# Track frame offsets:
#	150
#	7361
#	24934
#	47413
#	64272
#	86232
#	100078
#	119749
#	139163
#	167801
#	202682
#	217621
#	233549
#	260557
#
# Disc length: 3564 seconds
#
# Revision: 1
# Processed by: cddbd v1.5.2PL0 Copyright (c) Steve Scherf et al.
# Submitted via: EZCDAudioConverter 1.3.4.1
#
DISCID=ba0dea0e
DTITLE=Monophonics - In Your Brain
DYEAR=2012
DGENRE=Blues
TTITLE0=Looking Ahead
TTITLE1=There's A Riot Going On
TTITLE2=In Your Brain
TTITLE3=Sure Is Funky
TTITLE4=Deception
TTITLE5=All Together
TTITLE6=Say You Love Me
TTITLE7=They Don't Understand
TTITLE8=Mirage
TTITLE9=Foolish Love
TTITLE10=Thinking Black
TTITLE11=Bang Bang
TTITLE12=Temptation
TTITLE13=Keep Looking Ahead
EXTD=
EXTT0=
EXTT1=
EXTT2=
EXTT3=
EXTT4=
EXTT5=
EXTT6=
EXTT7=
EXTT8=
EXTT9=
EXTT10=
EXTT11=
EXTT12=
EXTT13=
PLAYORDER=
